# xmcd
#
# Track frame offsets:
#  150
#  13165
#  24570
#  39200
#  50896
#  61962
#  73272
#  85018
#  95211
#  108050
#  121722
#  136065
#
# Disc length: 1945 seconds
#
# Revision: 0
# Processed by: cddbd v1.5.1PL2 Copyright (c) Steve Scherf et al.
# Submitted via: Collectorz.com_Music_Collector 6.9
#
DISCID=9b07970c
DTITLE=Black Hills Country Band - Country Party
DYEAR=1988
DGENRE=
TTITLE0=Rollin' steel
TTITLE1=My truck
TTITLE2=My elusive dreams
TTITLE3=Stand on it
TTITLE4=Boys saloon
TTITLE5=Mule train
TTITLE6=California sunset
TTITLE7=A perfect match
TTITLE8=Who's gonna fill their shoes
TTITLE9=My baby thinks he's a train
TTITLE10=Empty arms
TTITLE11=Tokyo polka
EXTD=
EXTT0=
EXTT1=
EXTT2=
EXTT3=
EXTT4=
EXTT5=
EXTT6=
EXTT7=
EXTT8=
EXTT9=
EXTT10=
EXTT11=
PLAYORDER=
